# xmcd
# 
# Track frame offsets:
#     150
#     35698
#     68322
#     87389
#     129162
#     157761
#     180177
#     197701
#     224992
#     252065
#     273282
# 
# Disc length: 3954
# 
# Revision: 1
# Processed by: cddbd v1.5.2PL0 Copyright (c) Steve Scherf et al.
# Submitted via: BonkEnc v1.0.8
# 
DISCID=8d0f700b
DTITLE=Jinga Quintet [Avishai Cohen, Miguel Zenon, Andrew Rathbun, Luis Perdomo, Fernando Huergo, Steve Langone] - A Day Gone By
DYEAR=2002
DGENRE=Contemporary Jazz
TTITLE0=Africa's Cry
TTITLE1=Hermeto
TTITLE2=Billie
TTITLE3=Night And Day
TTITLE4=A Day Gone By
TTITLE5=Ipanema's Blues
TTITLE6=Andalucia
TTITLE7=Brazilian Aestethics
TTITLE8=Inner Out
TTITLE9=Loud Pictures
TTITLE10=I Concentrate On You
EXTD=YEAR: 2002
EXTT0=
EXTT1=
EXTT2=
EXTT3=
EXTT4=
EXTT5=
EXTT6=
EXTT7=
EXTT8=
EXTT9=
EXTT10=
PLAYORDER=
